<svg width="89" height="30" viewBox="0 0 89 30" fill="none" xmlns="http://www.w3.org/2000/svg">
<path d="M1.5485 24V6.18349H5.31537V14.0391H5.55026L11.9618 6.18349H16.4768L9.86519 14.1609L16.5551 24H12.0488L7.16836 16.6751L5.31537 18.9369V24H1.5485ZM22.0749 6.18349V24H18.3689V6.18349H22.0749ZM33.6126 18.3105V10.6376H37.3185V24H33.7604V21.5728H33.6213C33.3197 22.3558 32.818 22.9851 32.1162 23.4606C31.4203 23.9362 30.5706 24.174 29.5673 24.174C28.6742 24.174 27.8883 23.971 27.2098 23.565C26.5312 23.1591 26.0005 22.582 25.6177 21.8338C25.2408 21.0857 25.0494 20.1896 25.0436 19.1457V10.6376H28.7496V18.4845C28.7554 19.2733 28.967 19.8968 29.3846 20.3549C29.8022 20.8131 30.3619 21.0422 31.0636 21.0422C31.5102 21.0422 31.9278 20.9407 32.3163 20.7377C32.7049 20.5289 33.0181 20.2215 33.2559 19.8156C33.4995 19.4096 33.6184 18.9079 33.6126 18.3105ZM47.3903 10.6376V13.4215H39.3433V10.6376H47.3903ZM41.1702 7.43622H44.8762V19.8939C44.8762 20.236 44.9284 20.5028 45.0328 20.6942C45.1372 20.8798 45.2822 21.0103 45.4678 21.0857C45.6591 21.1611 45.8795 21.1988 46.1289 21.1988C46.3029 21.1988 46.4769 21.1843 46.6509 21.1553C46.8249 21.1205 46.9583 21.0944 47.0511 21.077L47.6339 23.8347C47.4483 23.8927 47.1873 23.9594 46.851 24.0348C46.5146 24.116 46.1057 24.1653 45.6243 24.1827C44.7312 24.2175 43.9482 24.0986 43.2755 23.826C42.6085 23.5534 42.0895 23.1301 41.7183 22.5559C41.3471 21.9817 41.1644 21.2568 41.1702 20.381V7.43622ZM56.9119 10.6376V13.4215H48.8649V10.6376H56.9119ZM50.6918 7.43622H54.3978V19.8939C54.3978 20.236 54.45 20.5028 54.5543 20.6942C54.6587 20.8798 54.8037 21.0103 54.9893 21.0857C55.1807 21.1611 55.4011 21.1988 55.6505 21.1988C55.8245 21.1988 55.9985 21.1843 56.1724 21.1553C56.3464 21.1205 56.4798 21.0944 56.5726 21.077L57.1555 23.8347C56.9699 23.8927 56.7089 23.9594 56.3725 24.0348C56.0362 24.116 55.6273 24.1653 55.1459 24.1827C54.2528 24.2175 53.4698 24.0986 52.7971 23.826C52.1301 23.5534 51.611 23.1301 51.2398 22.5559C50.8687 21.9817 50.686 21.2568 50.6918 20.381V7.43622ZM65.2721 24.261C63.8976 24.261 62.7144 23.9826 61.7227 23.4258C60.7368 22.8633 59.977 22.0687 59.4434 21.0422C58.9099 20.0098 58.6431 18.789 58.6431 17.3797C58.6431 16.0052 58.9099 14.7989 59.4434 13.7607C59.977 12.7226 60.7281 11.9135 61.6966 11.3336C62.6709 10.7536 63.8135 10.4636 65.1242 10.4636C66.0057 10.4636 66.8264 10.6057 67.5861 10.8899C68.3517 11.1683 69.0187 11.5888 69.587 12.1513C70.1612 12.7139 70.6078 13.4215 70.9267 14.274C71.2457 15.1207 71.4052 16.1125 71.4052 17.2492V18.2671H60.122V15.9704H67.9167C67.9167 15.4368 67.8007 14.9642 67.5687 14.5524C67.3368 14.1406 67.0149 13.8187 66.6031 13.5867C66.1971 13.349 65.7245 13.2301 65.1851 13.2301C64.6225 13.2301 64.1238 13.3606 63.6888 13.6215C63.2596 13.8767 62.9232 14.2218 62.6796 14.6568C62.4361 15.0859 62.3114 15.5644 62.3056 16.0922V18.2758C62.3056 18.9369 62.4274 19.5082 62.6709 19.9895C62.9203 20.4709 63.2712 20.8421 63.7236 21.1031C64.176 21.3641 64.7124 21.4946 65.333 21.4946C65.7448 21.4946 66.1217 21.4366 66.4639 21.3206C66.8061 21.2046 67.099 21.0306 67.3426 20.7986C67.5861 20.5666 67.7717 20.2824 67.8993 19.946L71.3269 20.1722C71.1529 20.9958 70.7962 21.7149 70.2569 22.3297C69.7233 22.9387 69.0332 23.4142 68.1864 23.7564C67.3455 24.0928 66.374 24.261 65.2721 24.261ZM73.8237 24V10.6376H77.4165V12.9691H77.5557C77.7993 12.1397 78.2082 11.5134 78.7824 11.09C79.3565 10.6608 80.0177 10.4462 80.7658 10.4462C80.9514 10.4462 81.1515 10.4578 81.3661 10.481C81.5807 10.5042 81.7692 10.5361 81.9316 10.5767V13.8651C81.7576 13.8129 81.5169 13.7665 81.2095 13.7259C80.9021 13.6853 80.6208 13.665 80.3657 13.665C79.8205 13.665 79.3333 13.7839 78.9041 14.0217C78.4808 14.2537 78.1444 14.5785 77.895 14.9961C77.6514 15.4136 77.5296 15.895 77.5296 16.4402V24H73.8237Z" fill="white"/>
<rect x="83" y="18.5625" width="5.25" height="5.25" fill="#FF9900"/>
<path d="M87.6028 26.9851L84.4789 26.6573L84.2884 25.9731C84.2818 25.9501 84.2675 25.9299 84.2476 25.9154C84.2277 25.9009 84.2033 25.893 84.1782 25.8929H83.7092C83.6923 25.8712 83.6703 25.8536 83.645 25.8414C83.6196 25.8292 83.5917 25.8227 83.5632 25.8224C83.5133 25.8224 83.4654 25.8412 83.4301 25.8747C83.3948 25.9082 83.375 25.9536 83.375 26.0009C83.375 26.0482 83.3948 26.0936 83.4301 26.1271C83.4654 26.1606 83.5133 26.1794 83.5632 26.1794C83.6239 26.1794 83.6751 26.1506 83.7095 26.1087H84.0904L84.8834 28.9553C84.7969 29.0426 84.7486 29.1579 84.7484 29.2776C84.7484 29.3398 84.7613 29.4014 84.7863 29.4589C84.8114 29.5163 84.8481 29.5685 84.8945 29.6125C84.9409 29.6565 84.9959 29.6913 85.0565 29.7151C85.1171 29.7389 85.182 29.7511 85.2476 29.7511C85.3801 29.7511 85.5071 29.7013 85.6009 29.6125C85.6946 29.5237 85.7474 29.4033 85.7475 29.2776C85.7472 29.2416 85.7425 29.2058 85.7334 29.1708H86.5723C86.5633 29.2058 86.5586 29.2417 86.5583 29.2776C86.5583 29.5393 86.7821 29.7511 87.0581 29.7511C87.334 29.7511 87.5574 29.5393 87.5574 29.2776C87.5574 29.152 87.5048 29.0315 87.4111 28.9426C87.3175 28.8537 87.1904 28.8037 87.0579 28.8036C86.9139 28.8036 86.785 28.8626 86.6937 28.955H85.6118C85.5653 28.9074 85.509 28.8693 85.4463 28.8433C85.3837 28.8172 85.316 28.8037 85.2476 28.8036C85.19 28.8036 85.1357 28.8149 85.0843 28.8318L85.0567 28.7332H87.2678C87.3527 28.7315 87.4347 28.7029 87.5004 28.6518C87.5661 28.6007 87.6118 28.5301 87.6301 28.4514L87.8689 27.3303C87.873 27.3107 87.875 27.2907 87.875 27.2708C87.8751 27.1996 87.8473 27.1309 87.797 27.0781C87.7467 27.0253 87.6775 26.9922 87.6028 26.9851ZM87.0582 29.3199C87.0463 29.3199 87.035 29.3154 87.0265 29.3075C87.0181 29.2995 87.0133 29.2888 87.0132 29.2775C87.0136 29.2536 87.0337 29.2347 87.0584 29.2347C87.0831 29.2347 87.1031 29.2536 87.1034 29.2774C87.1032 29.2886 87.0984 29.2993 87.09 29.3072C87.0816 29.3151 87.0702 29.3196 87.0584 29.3196L87.0582 29.3199ZM87.3281 28.2424L87.4718 28.1058L87.4236 28.3329L87.3281 28.2424ZM85.1367 26.9431L85.2937 27.0923L85.0981 27.2778L84.902 27.0923L85.0668 26.9359L85.1366 26.9431H85.1367ZM85.8187 27.0147L85.9003 27.0923L85.7047 27.2778L85.5087 27.0923L85.613 26.9931L85.8187 27.0147ZM84.6629 27.3189L84.7948 27.1941L84.9904 27.3799L84.7948 27.5653L84.7092 27.4844L84.6631 27.3188L84.6629 27.3189ZM84.6182 27.1579L84.5685 26.9796L84.6875 27.0925L84.6182 27.1579ZM86.5066 27.6674L86.311 27.8529L86.115 27.6674L86.3109 27.4815L86.5065 27.6673L86.5066 27.6674ZM86.4182 27.3799L86.6141 27.1941L86.8097 27.3799L86.6141 27.5656L86.4181 27.3799H86.4182ZM86.0078 27.5653L85.8118 27.3799L86.0077 27.194L86.2032 27.3797L86.0077 27.5652L86.0078 27.5653ZM85.9002 27.6674L85.7046 27.8529L85.5087 27.6674L85.7046 27.4815L85.9002 27.6674ZM85.4013 27.5653L85.2053 27.3799L85.4012 27.194L85.5968 27.3797L85.4012 27.5652L85.4013 27.5653ZM85.2937 27.6674L85.0981 27.8529L84.902 27.6674L85.0979 27.4815L85.2935 27.6673L85.2937 27.6674ZM84.7948 27.7691L84.9904 27.9548L84.8716 28.0674L84.7897 27.7735L84.7947 27.7688L84.7948 27.7691ZM84.9164 28.2287L85.0979 28.0566L85.2935 28.2424L85.0979 28.4278L84.9266 28.2654L84.9163 28.2286L84.9164 28.2287ZM85.2054 27.9548L85.401 27.7689L85.5971 27.9547L85.4015 28.1401L85.2056 27.9547L85.2054 27.9548ZM85.7046 28.0565L85.9005 28.2422L85.7046 28.4277L85.5087 28.2422L85.7046 28.0565ZM85.8119 27.9547L86.0078 27.7688L86.2034 27.9545L86.0078 28.14L85.8119 27.9547ZM86.3107 28.0563L86.5068 28.2421L86.3112 28.4275L86.1153 28.2418L86.3109 28.0563H86.3107ZM86.4184 27.9545L86.614 27.7686L86.81 27.9544L86.6144 28.1399L86.4184 27.9545ZM86.7216 27.667L86.9172 27.4811L87.1133 27.6668L86.9177 27.8523L86.7216 27.667ZM87.0249 27.3795L87.2205 27.1936L87.4163 27.3799L87.2208 27.5656L87.0247 27.3797L87.0249 27.3795ZM86.9172 27.2777L86.7421 27.1115L87.0578 27.1445L86.9174 27.2777H86.9172ZM86.5069 27.0923L86.3113 27.2781L86.1153 27.0923L86.1593 27.0506L86.5009 27.0866L86.5069 27.0923ZM85.4016 26.9903L85.3786 26.9687L85.42 26.973L85.4018 26.9903H85.4016ZM84.7951 26.9906L84.6966 26.8971L84.874 26.9158L84.7951 26.9906ZM85.4016 28.3441L85.5843 28.5174H85.2189L85.4016 28.3441ZM86.0081 28.3441L86.1908 28.5175H85.8251L86.008 28.3441H86.0081ZM86.6146 28.3441L86.7976 28.5177H86.4316L86.6144 28.3441H86.6146ZM86.7218 28.2424L86.9177 28.0565L87.1133 28.2422L86.9177 28.4277L86.7216 28.2422L86.7218 28.2424ZM87.025 27.9548L87.2209 27.7691L87.4165 27.9545L87.2209 28.1404L87.0249 27.955L87.025 27.9548ZM87.5242 27.8527L87.3283 27.6673L87.5238 27.4815L87.5913 27.5454L87.5261 27.8507L87.524 27.8529L87.5242 27.8527ZM87.6 27.2058L87.5242 27.2777L87.4241 27.1832L87.5783 27.1993C87.5865 27.2005 87.5934 27.203 87.6001 27.2056L87.6 27.2058ZM85.2479 29.3198C85.2364 29.3191 85.2256 29.3144 85.2177 29.3065C85.2099 29.2985 85.2055 29.288 85.2055 29.2771C85.2055 29.2663 85.2099 29.2558 85.2177 29.2478C85.2256 29.2399 85.2364 29.2352 85.2479 29.2345C85.2593 29.2351 85.2701 29.2399 85.2779 29.2478C85.2858 29.2557 85.2902 29.2661 85.2902 29.277C85.2902 29.2879 85.2858 29.2983 85.2779 29.3062C85.2701 29.3141 85.2593 29.3189 85.2479 29.3195V29.3198ZM87.2679 28.5175H87.0379L87.2209 28.344L87.3619 28.4777C87.3336 28.5022 87.2978 28.5194 87.2679 28.5175Z" fill="black"/>
</svg>
