<svg width="89" height="30" viewBox="0 0 89 30" fill="none" xmlns="http://www.w3.org/2000/svg">
<path d="M1.5485 24V6.18349H5.31537V14.0391H5.55026L11.9618 6.18349H16.4768L9.86519 14.1609L16.5551 24H12.0488L7.16836 16.6751L5.31537 18.9369V24H1.5485ZM22.0749 6.18349V24H18.3689V6.18349H22.0749ZM33.6126 18.3105V10.6376H37.3185V24H33.7604V21.5728H33.6213C33.3197 22.3558 32.818 22.9851 32.1162 23.4606C31.4203 23.9362 30.5706 24.174 29.5673 24.174C28.6742 24.174 27.8883 23.971 27.2098 23.565C26.5312 23.1591 26.0005 22.582 25.6177 21.8338C25.2408 21.0857 25.0494 20.1896 25.0436 19.1457V10.6376H28.7496V18.4845C28.7554 19.2733 28.967 19.8968 29.3846 20.3549C29.8022 20.8131 30.3619 21.0422 31.0636 21.0422C31.5102 21.0422 31.9278 20.9407 32.3163 20.7377C32.7049 20.5289 33.0181 20.2215 33.2559 19.8156C33.4995 19.4096 33.6184 18.9079 33.6126 18.3105ZM47.3903 10.6376V13.4215H39.3433V10.6376H47.3903ZM41.1702 7.43622H44.8762V19.8939C44.8762 20.236 44.9284 20.5028 45.0328 20.6942C45.1372 20.8798 45.2822 21.0103 45.4678 21.0857C45.6591 21.1611 45.8795 21.1988 46.1289 21.1988C46.3029 21.1988 46.4769 21.1843 46.6509 21.1553C46.8249 21.1205 46.9583 21.0944 47.0511 21.077L47.6339 23.8347C47.4483 23.8927 47.1873 23.9594 46.851 24.0348C46.5146 24.116 46.1057 24.1653 45.6243 24.1827C44.7312 24.2175 43.9482 24.0986 43.2755 23.826C42.6085 23.5534 42.0895 23.1301 41.7183 22.5559C41.3471 21.9817 41.1644 21.2568 41.1702 20.381V7.43622ZM56.9119 10.6376V13.4215H48.8649V10.6376H56.9119ZM50.6918 7.43622H54.3978V19.8939C54.3978 20.236 54.45 20.5028 54.5543 20.6942C54.6587 20.8798 54.8037 21.0103 54.9893 21.0857C55.1807 21.1611 55.4011 21.1988 55.6505 21.1988C55.8245 21.1988 55.9985 21.1843 56.1724 21.1553C56.3464 21.1205 56.4798 21.0944 56.5726 21.077L57.1555 23.8347C56.9699 23.8927 56.7089 23.9594 56.3725 24.0348C56.0362 24.116 55.6273 24.1653 55.1459 24.1827C54.2528 24.2175 53.4698 24.0986 52.7971 23.826C52.1301 23.5534 51.611 23.1301 51.2398 22.5559C50.8687 21.9817 50.686 21.2568 50.6918 20.381V7.43622ZM65.2721 24.261C63.8976 24.261 62.7144 23.9826 61.7227 23.4258C60.7368 22.8633 59.977 22.0687 59.4434 21.0422C58.9099 20.0098 58.6431 18.789 58.6431 17.3797C58.6431 16.0052 58.9099 14.7989 59.4434 13.7607C59.977 12.7226 60.7281 11.9135 61.6966 11.3336C62.6709 10.7536 63.8135 10.4636 65.1242 10.4636C66.0057 10.4636 66.8264 10.6057 67.5861 10.8899C68.3517 11.1683 69.0187 11.5888 69.587 12.1513C70.1612 12.7139 70.6078 13.4215 70.9267 14.274C71.2457 15.1207 71.4052 16.1125 71.4052 17.2492V18.2671H60.122V15.9704H67.9167C67.9167 15.4368 67.8007 14.9642 67.5687 14.5524C67.3368 14.1406 67.0149 13.8187 66.6031 13.5867C66.1971 13.349 65.7245 13.2301 65.1851 13.2301C64.6225 13.2301 64.1238 13.3606 63.6888 13.6215C63.2596 13.8767 62.9232 14.2218 62.6796 14.6568C62.4361 15.0859 62.3114 15.5644 62.3056 16.0922V18.2758C62.3056 18.9369 62.4274 19.5082 62.6709 19.9895C62.9203 20.4709 63.2712 20.8421 63.7236 21.1031C64.176 21.3641 64.7124 21.4946 65.333 21.4946C65.7448 21.4946 66.1217 21.4366 66.4639 21.3206C66.8061 21.2046 67.099 21.0306 67.3426 20.7986C67.5861 20.5666 67.7717 20.2824 67.8993 19.946L71.3269 20.1722C71.1529 20.9958 70.7962 21.7149 70.2569 22.3297C69.7233 22.9387 69.0332 23.4142 68.1864 23.7564C67.3455 24.0928 66.374 24.261 65.2721 24.261ZM73.8237 24V10.6376H77.4165V12.9691H77.5557C77.7993 12.1397 78.2082 11.5134 78.7824 11.09C79.3565 10.6608 80.0177 10.4462 80.7658 10.4462C80.9514 10.4462 81.1515 10.4578 81.3661 10.481C81.5807 10.5042 81.7692 10.5361 81.9316 10.5767V13.8651C81.7576 13.8129 81.5169 13.7665 81.2095 13.7259C80.9021 13.6853 80.6208 13.665 80.3657 13.665C79.8205 13.665 79.3333 13.7839 78.9041 14.0217C78.4808 14.2537 78.1444 14.5785 77.895 14.9961C77.6514 15.4136 77.5296 15.895 77.5296 16.4402V24H73.8237Z" fill="white"/>
<rect x="83" y="18.5625" width="5.25" height="5.25" fill="#FF9900"/>
<path d="M87.6028 20.7418L84.4789 20.4446L84.2884 19.8241C84.2818 19.8033 84.2675 19.7849 84.2476 19.7718C84.2277 19.7587 84.2033 19.7515 84.1782 19.7514H83.7092C83.6923 19.7318 83.6703 19.7158 83.645 19.7047C83.6196 19.6936 83.5917 19.6877 83.5632 19.6875C83.5133 19.6875 83.4654 19.7046 83.4301 19.7349C83.3948 19.7653 83.375 19.8064 83.375 19.8494C83.375 19.8923 83.3948 19.9334 83.4301 19.9638C83.4654 19.9942 83.5133 20.0112 83.5632 20.0112C83.6239 20.0112 83.6751 19.9851 83.7095 19.9471H84.0904L84.8834 22.5284C84.7969 22.6076 84.7486 22.7121 84.7484 22.8207C84.7484 22.8771 84.7613 22.9329 84.7863 22.985C84.8114 23.0371 84.8481 23.0845 84.8945 23.1243C84.9409 23.1642 84.9959 23.1958 85.0565 23.2174C85.1171 23.239 85.182 23.25 85.2476 23.25C85.3801 23.25 85.5071 23.2048 85.6009 23.1243C85.6946 23.0438 85.7474 22.9346 85.7475 22.8207C85.7472 22.788 85.7425 22.7555 85.7334 22.7238H86.5723C86.5633 22.7555 86.5586 22.788 86.5583 22.8207C86.5583 23.058 86.7821 23.25 87.0581 23.25C87.334 23.25 87.5574 23.058 87.5574 22.8207C87.5574 22.7067 87.5048 22.5975 87.4111 22.5169C87.3175 22.4362 87.1904 22.3909 87.0579 22.3909C86.9139 22.3909 86.785 22.4443 86.6937 22.5281H85.6118C85.5653 22.4849 85.509 22.4504 85.4463 22.4268C85.3837 22.4032 85.316 22.3909 85.2476 22.3909C85.19 22.3909 85.1357 22.401 85.0843 22.4164L85.0567 22.327H87.2678C87.3527 22.3255 87.4347 22.2995 87.5004 22.2531C87.5661 22.2068 87.6118 22.1428 87.6301 22.0715L87.8689 21.0548C87.873 21.037 87.875 21.019 87.875 21.0009C87.8751 20.9363 87.8473 20.8741 87.797 20.8262C87.7467 20.7783 87.6775 20.7483 87.6028 20.7418ZM87.0582 22.859C87.0463 22.859 87.035 22.8549 87.0265 22.8477C87.0181 22.8405 87.0133 22.8308 87.0132 22.8206C87.0136 22.7989 87.0337 22.7817 87.0584 22.7817C87.0831 22.7817 87.1031 22.7989 87.1034 22.8204C87.1032 22.8306 87.0984 22.8403 87.09 22.8475C87.0816 22.8547 87.0702 22.8587 87.0584 22.8588L87.0582 22.859ZM87.3281 21.8819L87.4718 21.758L87.4236 21.964L87.3281 21.8819ZM85.1367 20.7037L85.2937 20.8391L85.0981 21.0072L84.902 20.8391L85.0668 20.6972L85.1366 20.7037H85.1367ZM85.8187 20.7687L85.9003 20.8391L85.7047 21.0072L85.5087 20.8391L85.613 20.7491L85.8187 20.7687ZM84.6629 21.0445L84.7948 20.9314L84.9904 21.0998L84.7948 21.268L84.7092 21.1946L84.6631 21.0444L84.6629 21.0445ZM84.6182 20.8985L84.5685 20.7369L84.6875 20.8392L84.6182 20.8985ZM86.5066 21.3605L86.311 21.5287L86.115 21.3605L86.3109 21.192L86.5065 21.3604L86.5066 21.3605ZM86.4182 21.0998L86.6141 20.9314L86.8097 21.0998L86.6141 21.2682L86.4181 21.0998H86.4182ZM86.0078 21.268L85.8118 21.0998L86.0077 20.9312L86.2032 21.0997L86.0077 21.2678L86.0078 21.268ZM85.9002 21.3605L85.7046 21.5287L85.5087 21.3605L85.7046 21.192L85.9002 21.3605ZM85.4013 21.268L85.2053 21.0998L85.4012 20.9312L85.5968 21.0997L85.4012 21.2678L85.4013 21.268ZM85.2937 21.3605L85.0981 21.5287L84.902 21.3605L85.0979 21.192L85.2935 21.3604L85.2937 21.3605ZM84.7948 21.4527L84.9904 21.6212L84.8716 21.7232L84.7897 21.4568L84.7947 21.4525L84.7948 21.4527ZM84.9164 21.8695L85.0979 21.7135L85.2935 21.8819L85.0979 22.0501L84.9266 21.9028L84.9163 21.8694L84.9164 21.8695ZM85.2054 21.6212L85.401 21.4526L85.5971 21.621L85.4015 21.7892L85.2056 21.621L85.2054 21.6212ZM85.7046 21.7133L85.9005 21.8818L85.7046 22.0499L85.5087 21.8818L85.7046 21.7133ZM85.8119 21.621L86.0078 21.4525L86.2034 21.6209L86.0078 21.7891L85.8119 21.621ZM86.3107 21.7132L86.5068 21.8816L86.3112 22.0498L86.1153 21.8814L86.3109 21.7132H86.3107ZM86.4184 21.6209L86.614 21.4523L86.81 21.6208L86.6144 21.7889L86.4184 21.6209ZM86.7216 21.3602L86.9172 21.1916L87.1133 21.36L86.9177 21.5282L86.7216 21.3602ZM87.0249 21.0994L87.2205 20.9308L87.4163 21.0998L87.2208 21.2682L87.0247 21.0997L87.0249 21.0994ZM86.9172 21.0071L86.7421 20.8564L87.0578 20.8864L86.9174 21.0071H86.9172ZM86.5069 20.8391L86.3113 21.0075L86.1153 20.8391L86.1593 20.8013L86.5009 20.8338L86.5069 20.8391ZM85.4016 20.7465L85.3786 20.7269L85.42 20.7309L85.4018 20.7465H85.4016ZM84.7951 20.7468L84.6966 20.662L84.874 20.679L84.7951 20.7468ZM85.4016 21.9742L85.5843 22.1313H85.2189L85.4016 21.9742ZM86.0081 21.9742L86.1908 22.1314H85.8251L86.008 21.9742H86.0081ZM86.6146 21.9742L86.7976 22.1316H86.4316L86.6144 21.9742H86.6146ZM86.7218 21.8819L86.9177 21.7133L87.1133 21.8818L86.9177 22.0499L86.7216 21.8818L86.7218 21.8819ZM87.025 21.6212L87.2209 21.4527L87.4165 21.6209L87.2209 21.7895L87.0249 21.6213L87.025 21.6212ZM87.5242 21.5286L87.3283 21.3604L87.5238 21.192L87.5913 21.2499L87.5261 21.5268L87.524 21.5287L87.5242 21.5286ZM87.6 20.9419L87.5242 21.0071L87.4241 20.9215L87.5783 20.9361C87.5865 20.9371 87.5934 20.9394 87.6001 20.9418L87.6 20.9419ZM85.2479 22.8589C85.2364 22.8583 85.2256 22.854 85.2177 22.8468C85.2099 22.8396 85.2055 22.8301 85.2055 22.8202C85.2055 22.8104 85.2099 22.8008 85.2177 22.7937C85.2256 22.7865 85.2364 22.7822 85.2479 22.7816C85.2593 22.7822 85.2701 22.7865 85.2779 22.7936C85.2858 22.8008 85.2902 22.8103 85.2902 22.8201C85.2902 22.83 85.2858 22.8394 85.2779 22.8466C85.2701 22.8537 85.2593 22.8581 85.2479 22.8586V22.8589ZM87.2679 22.1314H87.0379L87.2209 21.9741L87.3619 22.0953C87.3336 22.1175 87.2978 22.1331 87.2679 22.1314Z" fill="black"/>
</svg>
